<svg xmlns="http://www.w3.org/2000/svg" version="1.1" xmlns:xlink="http://www.w3.org/1999/xlink" xmlns:svgjs="http://svgjs.dev/svgjs" width="1000" height="999" viewBox="0 0 1000 999"><g transform="matrix(1,0,0,1,-0.215743440233382,-0.21552769679306039)"><svg viewBox="0 0 343 343" data-background-color="#ffffff" preserveAspectRatio="xMidYMid meet" height="999" width="1000" xmlns="http://www.w3.org/2000/svg" xmlns:xlink="http://www.w3.org/1999/xlink"><g id="tight-bounds" transform="matrix(1,0,0,1,0.0740000000000407,0.07400000000001228)"><svg viewBox="0 0 342.85155851775386 342.85155851775386" height="342.85155851775386" width="342.85155851775386"><g><svg></svg></g><g><svg viewBox="0 0 342.85155851775386 342.85155851775386" height="342.85155851775386" width="342.85155851775386"><g><path d="M0 171.426c0-94.676 76.75-171.426 171.426-171.426 94.676 0 171.426 76.75 171.426 171.426 0 94.676-76.75 171.426-171.426 171.426-94.676 0-171.426-76.75-171.426-171.426zM171.426 330.265c87.725 0 158.84-71.115 158.839-158.839 0-87.725-71.115-158.84-158.839-158.84-87.725 0-158.84 71.115-158.84 158.84 0 87.725 71.115 158.84 158.84 158.839z" data-fill-palette-color="tertiary" fill="#f80909" stroke="transparent"></path><ellipse rx="164.56874808852186" ry="164.56874808852186" cx="171.42577925887693" cy="171.42577925887693" fill="#f80909" stroke="transparent" stroke-width="0" fill-opacity="1" data-fill-palette-color="tertiary"></ellipse></g><g transform="matrix(1,0,0,1,64.84655864529837,101.64334698047725)"><svg viewBox="0 0 213.1584412271571 139.56486455679936" height="139.56486455679936" width="213.1584412271571"><g><svg viewBox="0 0 292.56861220444983 191.55844122715712" height="139.56486455679936" width="213.1584412271571"><g><svg viewBox="0 0 152.87160793158682 191.55844122715712" height="191.55844122715712" width="152.87160793158682"><g><svg viewBox="0 0 152.87160793158682 191.55844122715712" height="191.55844122715712" width="152.87160793158682"><g><svg viewBox="0 0 152.87160793158682 191.55844122715712" height="191.55844122715712" width="152.87160793158682"><g transform="matrix(1,0,0,1,0,0)"><svg width="152.87160793158682" viewBox="6.5 -36.8 32.6 40.85" height="191.55844122715712" data-palette-color="#ffffff"><path d="M39.1-26.95L39.1-26.95Q39.1-24.2 37.73-21.7 36.35-19.2 34.02-17.32 31.7-15.45 28.58-14.35 25.45-13.25 21.95-13.25L21.95-13.25Q20.7-13.25 19.98-13.58 19.25-13.9 18.35-14.85L18.35-14.85Q15.85-9.4 14.28-4.83 12.7-0.25 11.8 4.05L11.8 4.05Q9.9 3.6 8.7 2.48 7.5 1.35 6.5-0.35L6.5-0.35Q7-1.3 7.7-2.85 8.4-4.4 9.4-6.68 10.4-8.95 11.73-12.13 13.05-15.3 14.85-19.55L14.85-19.55Q15.65-21.5 16.25-22.95 16.85-24.4 17.3-25.68 17.75-26.95 18.13-28.2 18.5-29.45 18.9-30.95L18.9-30.95Q16.55-30.2 14.58-29.2 12.6-28.2 11.3-27.1L11.3-27.1Q10.85-27.4 10.38-28 9.9-28.6 9.5-29.33 9.1-30.05 8.8-30.8 8.5-31.55 8.45-32.15L8.45-32.15Q9.9-33.15 12.05-34 14.2-34.85 16.65-35.48 19.1-36.1 21.73-36.45 24.35-36.8 26.75-36.8L26.75-36.8Q29.6-36.8 31.9-36.08 34.2-35.35 35.8-34.05 37.4-32.75 38.25-30.95 39.1-29.15 39.1-26.95ZM30.2-32.95L30.2-32.95Q28.3-32.95 26.3-32.65L26.3-32.65 26.9-31.75Q26.4-31.1 25.65-29.8 24.9-28.5 24-26.68 23.1-24.85 22.03-22.6 20.95-20.35 19.75-17.85L19.75-17.85Q23.65-17.85 26.85-18.57 30.05-19.3 32.33-20.58 34.6-21.85 35.88-23.55 37.15-25.25 37.15-27.2L37.15-27.2Q37.15-29.8 35.4-31.38 33.65-32.95 30.2-32.95Z" opacity="1" transform="matrix(1,0,0,1,0,0)" fill="#ffffff" class="undefined-text-0" data-fill-palette-color="quaternary" id="text-0"></path></svg></g></svg></g></svg></g></svg></g><g transform="matrix(1,0,0,1,198.09395850272915,34.07029097390801)"><svg viewBox="0 0 94.47465370172065 123.4178592793411" height="123.4178592793411" width="94.47465370172065"><g><svg xmlns="http://www.w3.org/2000/svg" xmlns:xlink="http://www.w3.org/1999/xlink" version="1.1" x="8" y="0" viewBox="0 0.6441024164798659 63.175 99.35594350767317" enable-background="new 0 0 63.176 100" xml:space="preserve" width="78.47465370172065" height="123.4178592793411" class="icon-icon-0" data-fill-palette-color="quaternary" id="icon-0"><g fill="#ffffff" data-fill-palette-color="quaternary"><circle cx="35.097" cy="8.635" r="8.6" fill="#ffffff" data-fill-palette-color="quaternary"></circle><g fill="#ffffff" data-fill-palette-color="quaternary"><path d="M55.788 83.153l7.387-0.802-3.833-14.719-4.368 0.479c-0.891-4.368-3.577-7.554-6.496-7.644l-2.63-8.936v2.674c0 2.329-0.735 4.535-2.084 6.373-1.549 0.412-3.02 1.66-4.123 3.454l0.056 2.373c0.769-1.972 1.939-3.51 3.242-4.29l0.011 0.067c0.178 0.579 0.535 1.059 0.992 1.393-0.579 1.081-0.981 2.384-1.17 3.822l1.092 0.167c0.156-1.348 0.546-2.552 1.07-3.521 0.501 0.123 1.036 0.123 1.571-0.033 0.501-0.145 0.925-0.412 1.259-0.747 1.036 1.46 1.604 3.71 1.482 6.228l-9.504-1.415 0.078 3.22c0 0 0.011 0.423 0.011 0.791l6.173 12.134 8.669 1.293 0.011-15.209-4.334-0.646c0.167-2.975-0.591-5.66-1.95-7.354 0.1-0.234 0.167-0.479 0.189-0.735 2.719 0.089 4.591 3.387 5.27 6.663l-2.384 0.256c0 0.067 0.011 0.145 0.011 0.212l3.365 0.501 0.947 0.145v0.958L55.788 83.153z" fill="#ffffff" data-fill-palette-color="quaternary"></path><path d="M15.76 64.877c-0.109 0.177-0.217 0.355-0.32 0.541l0.983 0.497c0.914-1.672 2.111-2.92 3.37-3.514C18.526 62.494 17.041 63.422 15.76 64.877z" fill="#ffffff" data-fill-palette-color="quaternary"></path><path d="M25.512 63.644c0.4 1.52 0.414 3.305 0.012 5.189-0.012 0.481-0.05 0.974-0.117 1.476l-0.255-0.06c-0.007 0.023-0.013 0.046-0.02 0.069l3.039 1.536 0.858 0.434L28.725 73.2l-4.114 12.373 4.885 1.148 1.271-15.153-4.273-1.004C26.864 67.906 26.475 65.427 25.512 63.644z" fill="#ffffff" data-fill-palette-color="quaternary"></path><polygon points="4.548,80.86 10.448,82.246 5.076,79.53   " fill="#ffffff" data-fill-palette-color="quaternary"></polygon><path d="M24.356 86.658l-0.098-0.023-0.331 0.995-0.407 1.225-0.174-0.088-0.253 7.561c-0.065 1.962 1.473 3.606 3.434 3.67 1.96 0.066 3.604-1.473 3.669-3.433l0.283-8.469-1.238-0.291L24.356 86.658z" fill="#ffffff" data-fill-palette-color="quaternary"></path><path d="M30.774 84.769h5.805l-2.228-15.042h-4.39c-0.334-3.61-1.939-6.585-4.089-7.777l1.17-3.989c0.49 1.125 1.214 2.173 2.273 2.864l-0.836 1.928c1.215 1.493 2.095 3.532 2.462 5.861h4.368l0.045 0.301 4.301-7.432c0.512-0.312 1.003-0.713 1.426-1.137 1.571-1.582 2.54-3.744 2.54-6.139V27.354c0-1.203-0.245-2.351-0.691-3.387l-0.011 0.045c-1.337-3.153-4.401-5.37-7.978-5.37-4.802 0-8.691 3.978-8.691 8.88 0 0 0.022 5.994 0.045 12.468l-5.928 20.189c-2.574-0.167-5.616 1.816-7.677 5.103L8.78 63.298 0 75.71l22.875 11.565 4.791-14.429-3.911-1.983c0.992-2.529 1.192-5.058 0.646-7.031 0.401-0.201 0.758-0.49 1.014-0.858 1.916 0.635 3.231 4.735 3.432 6.752h-1.036l3.209 0.758 0.936 0.223-0.078 0.958L30.774 84.769zM22.755 70.365l-9.067-4.584c1.807-2.848 4.354-4.599 6.471-4.508-0.007 0.683 0.243 1.343 0.698 1.858l-0.589 0.278c-0.209 0.099-0.415 0.237-0.62 0.381-0.612 0.836-1.104 1.867-1.47 3.013l0.982 0.497c0.474-1.601 1.244-2.892 2.178-3.741 0.27 0.196 0.574 0.357 0.915 0.457 0.366 0.108 0.735 0.138 1.091 0.109C23.821 65.823 23.646 68.074 22.755 70.365z" fill="#ffffff" data-fill-palette-color="quaternary"></path><polygon points="10.955,84.771 16.323,84.771 11.136,83.552   " fill="#ffffff" data-fill-palette-color="quaternary"></polygon><path d="M37.621 72.648c0-0.015-0.031-1.292-0.031-1.292l-1.487 2.576 1.582 10.676 0.025 0.17-0.013 0.335 0.062-0.007 0.115 0.779h-1.291-0.195l5.185 10.197c0.89 1.749 3.03 2.446 4.779 1.556 1.749-0.887 2.446-3.029 1.556-4.778L37.621 72.648z" fill="#ffffff" data-fill-palette-color="quaternary"></path></g></g></svg></g></svg></g></svg></g></svg></g></svg></g><defs></defs></svg><rect width="342.85155851775386" height="342.85155851775386" fill="none" stroke="none" visibility="hidden"></rect></g></svg></g></svg>