<svg xmlns="http://www.w3.org/2000/svg" version="1.1" xmlns:xlink="http://www.w3.org/1999/xlink" xmlns:svgjs="http://svgjs.dev/svgjs" width="1000" height="280" viewBox="0 0 1000 280"><g transform="matrix(1,0,0,1,-0.6060606060606233,1.423682622964236)"><svg viewBox="0 0 396 111" data-background-color="#ffffff" preserveAspectRatio="xMidYMid meet" height="280" width="1000" xmlns="http://www.w3.org/2000/svg" xmlns:xlink="http://www.w3.org/1999/xlink"><g id="tight-bounds" transform="matrix(1,0,0,1,0.2400000000000091,0.12494076063208581)"><svg viewBox="0 0 395.52 110.75011847873583" height="110.75011847873583" width="395.52"><g><svg viewBox="0 0 531.5944430733485 148.8525170737534" height="110.75011847873583" width="395.52"><g transform="matrix(1,0,0,1,0,20.572236440728588)"><svg viewBox="0 0 395.52000000000004 107.70804419229623" height="107.70804419229623" width="395.52000000000004"><g><svg viewBox="0 0 395.52000000000004 107.70804419229623" height="107.70804419229623" width="395.52000000000004"><g><svg viewBox="0 0 395.52000000000004 107.70804419229623" height="107.70804419229623" width="395.52000000000004"><g transform="matrix(1,0,0,1,0,0)"><svg width="395.52000000000004" viewBox="6.5 -41.55 167.44 45.6" height="107.70804419229623" data-palette-color="#000000"><path d="M39.1-26.95L39.1-26.95Q39.1-24.2 37.73-21.7 36.35-19.2 34.02-17.32 31.7-15.45 28.58-14.35 25.45-13.25 21.95-13.25L21.95-13.25Q20.7-13.25 19.98-13.58 19.25-13.9 18.35-14.85L18.35-14.85Q15.85-9.4 14.28-4.83 12.7-0.25 11.8 4.05L11.8 4.05Q9.9 3.6 8.7 2.48 7.5 1.35 6.5-0.35L6.5-0.35Q7-1.3 7.7-2.85 8.4-4.4 9.4-6.68 10.4-8.95 11.73-12.13 13.05-15.3 14.85-19.55L14.85-19.55Q15.65-21.5 16.25-22.95 16.85-24.4 17.3-25.68 17.75-26.95 18.13-28.2 18.5-29.45 18.9-30.95L18.9-30.95Q16.55-30.2 14.58-29.2 12.6-28.2 11.3-27.1L11.3-27.1Q10.85-27.4 10.38-28 9.9-28.6 9.5-29.33 9.1-30.05 8.8-30.8 8.5-31.55 8.45-32.15L8.45-32.15Q9.9-33.15 12.05-34 14.2-34.85 16.65-35.48 19.1-36.1 21.73-36.45 24.35-36.8 26.75-36.8L26.75-36.8Q29.6-36.8 31.9-36.08 34.2-35.35 35.8-34.05 37.4-32.75 38.25-30.95 39.1-29.15 39.1-26.95ZM30.2-32.95L30.2-32.95Q28.3-32.95 26.3-32.65L26.3-32.65 26.9-31.75Q26.4-31.1 25.65-29.8 24.9-28.5 24-26.68 23.1-24.85 22.03-22.6 20.95-20.35 19.75-17.85L19.75-17.85Q23.65-17.85 26.85-18.57 30.05-19.3 32.33-20.58 34.6-21.85 35.88-23.55 37.15-25.25 37.15-27.2L37.15-27.2Q37.15-29.8 35.4-31.38 33.65-32.95 30.2-32.95ZM53-20.2L53-20.2Q53.5-20.2 54.17-20.03 54.85-19.85 55.4-19.58 55.95-19.3 56.32-19 56.7-18.7 56.7-18.45L56.7-18.45Q55.7-16.35 54.85-14.23 54-12.1 53.4-10.15 52.8-8.2 52.47-6.5 52.15-4.8 52.15-3.55L52.15-3.55Q52.15-2.15 52.45-1.23 52.75-0.3 53.45 0.1L53.45 0.1Q52.85 0.5 51.9 0.75 50.95 1 50.2 1L50.2 1Q47.5 1 47.5-2.7L47.5-2.7Q47.5-5.55 49.4-10.5L49.4-10.5Q48.4-8.2 47.1-6.18 45.8-4.15 44.45-2.6 43.1-1.05 41.72-0.08 40.35 0.9 39.2 1.1L39.2 1.1Q37.35 1 36.2-0.68 35.05-2.35 35.05-4.95L35.05-4.95Q35.05-7.75 36.25-10.85 37.45-13.95 39.32-16.6 41.2-19.25 43.4-21.03 45.6-22.8 47.65-22.9L47.65-22.9Q48.15-22.75 48.77-22.3 49.4-21.85 49.97-21.25 50.55-20.65 50.95-20.03 51.35-19.4 51.4-18.95L51.4-18.95Q49.4-18.65 47.27-17 45.15-15.35 43.42-13.03 41.7-10.7 40.6-8.05 39.5-5.4 39.5-3.1L39.5-3.1Q39.5-2.15 40.2-1.9L40.2-1.9Q41.65-2.2 43.55-4.38 45.45-6.55 48.15-11.1L48.15-11.1Q48.65-12 49.27-13.1 49.9-14.2 50.55-15.4 51.2-16.6 51.82-17.82 52.45-19.05 53-20.2ZM67.34-24.25L67.34-24.25Q68.65-23.85 69.8-22.48 70.95-21.1 71.5-19.45L71.5-19.45Q70.95-18.1 69.8-16.2 68.65-14.3 67.5-12.33 66.34-10.35 65.42-8.58 64.5-6.8 64.34-5.65L64.34-5.65Q65.15-6.5 66.12-7.63 67.09-8.75 68.02-9.88 68.95-11 69.75-11.93 70.55-12.85 71-13.3L71-13.3Q71.95-14.3 73.25-15.63 74.55-16.95 75.97-18.13 77.4-19.3 78.84-20.13 80.3-20.95 81.5-20.95L81.5-20.95Q82.8-20.95 83.67-20.08 84.55-19.2 85.05-18.25L85.05-18.25Q85.05-18.15 84.67-17.98 84.3-17.8 83.59-17L83.59-17Q82.9-16.1 82.02-14.53 81.15-12.95 80.32-11.13 79.5-9.3 78.95-7.4 78.4-5.5 78.4-3.95L78.4-3.95Q78.4-2.7 78.72-2.35 79.05-2 79.65-2L79.65-2Q80.2-2 80.8-2.25 81.4-2.5 81.75-2.5L81.75-2.5Q81.95-2.4 82.07-2.08 82.2-1.75 82.2-1.5L82.2-1.5Q81.8-1.15 81.25-0.8 80.7-0.45 80.09-0.15 79.5 0.15 78.92 0.35 78.34 0.55 77.9 0.55L77.9 0.55Q76.45 0.55 75.52 0.13 74.59-0.3 74.07-1 73.55-1.7 73.34-2.68 73.15-3.65 73.15-4.75L73.15-4.75Q73.15-5.35 73.25-6.1 73.34-6.85 73.65-7.88 73.95-8.9 74.5-10.33 75.05-11.75 75.9-13.75L75.9-13.75Q75.8-13.75 74.55-13.05 73.3-12.35 71.84-10.9L71.84-10.9Q69.5-8.65 67.62-6.45 65.75-4.25 63.8-1.55L63.8-1.55Q62.7 0 61.87 1.07 61.05 2.15 60.45 2.5L60.45 2.5Q59.4 1.9 58.9 0.83 58.4-0.25 58.15-1.4L58.15-1.4Q58.15-2.35 58.42-3.8 58.7-5.25 59.17-7.03 59.65-8.8 60.35-10.75 61.05-12.7 61.9-14.65L61.9-14.65Q63.8-19.05 65.37-21.55 66.95-24.05 67.34-24.25ZM103.49-20.2L103.49-20.2Q103.99-20.2 104.67-20.03 105.34-19.85 105.89-19.58 106.44-19.3 106.82-19 107.19-18.7 107.19-18.45L107.19-18.45Q106.19-16.35 105.34-14.23 104.49-12.1 103.89-10.15 103.29-8.2 102.97-6.5 102.64-4.8 102.64-3.55L102.64-3.55Q102.64-2.15 102.94-1.23 103.24-0.3 103.94 0.1L103.94 0.1Q103.34 0.5 102.39 0.75 101.44 1 100.69 1L100.69 1Q97.99 1 97.99-2.7L97.99-2.7Q97.99-5.55 99.89-10.5L99.89-10.5Q98.89-8.2 97.59-6.18 96.29-4.15 94.94-2.6 93.59-1.05 92.22-0.08 90.84 0.9 89.69 1.1L89.69 1.1Q87.84 1 86.69-0.68 85.54-2.35 85.54-4.95L85.54-4.95Q85.54-7.75 86.74-10.85 87.94-13.95 89.82-16.6 91.69-19.25 93.89-21.03 96.09-22.8 98.14-22.9L98.14-22.9Q98.64-22.75 99.27-22.3 99.89-21.85 100.47-21.25 101.04-20.65 101.44-20.03 101.84-19.4 101.89-18.95L101.89-18.95Q99.89-18.65 97.77-17 95.64-15.35 93.92-13.03 92.19-10.7 91.09-8.05 89.99-5.4 89.99-3.1L89.99-3.1Q89.99-2.15 90.69-1.9L90.69-1.9Q92.14-2.2 94.04-4.38 95.94-6.55 98.64-11.1L98.64-11.1Q99.14-12 99.77-13.1 100.39-14.2 101.04-15.4 101.69-16.6 102.32-17.82 102.94-19.05 103.49-20.2ZM120.44-23.35L120.44-23.35Q121.44-23.35 122.74-22.75 124.04-22.15 125.04-21.2L125.04-21.2Q124.79-23.2 124.42-24.98 124.04-26.75 123.32-28.65 122.59-30.55 121.39-32.8 120.19-35.05 118.39-37.95L118.39-37.95Q118.54-38.4 119.07-39 119.59-39.6 120.27-40.13 120.94-40.65 121.67-41.05 122.39-41.45 123.04-41.55L123.04-41.55Q124.44-40 125.69-37.68 126.94-35.35 127.89-32.68 128.84-30 129.37-27.15 129.89-24.3 129.89-21.7L129.89-21.7Q129.89-19.1 129.31-16.35 128.74-13.6 127.72-10.98 126.69-8.35 125.34-6 123.99-3.65 122.42-1.8 120.84 0.05 119.14 1.23 117.44 2.4 115.74 2.7L115.74 2.7Q112.29 2.3 110.47 0.48 108.64-1.35 108.64-4.55L108.64-4.55Q108.64-6.25 109.17-8.25 109.69-10.25 110.57-12.23 111.44-14.2 112.62-16.07 113.79-17.95 115.12-19.45 116.44-20.95 117.79-22 119.14-23.05 120.44-23.35ZM115.34 0.7L115.34 0.7Q117.09 0.1 118.84-1.95 120.59-4 121.99-6.78 123.39-9.55 124.27-12.73 125.14-15.9 125.14-18.85L125.14-18.85Q125.14-19.7 125.14-19.9 125.14-20.1 125.09-20.3L125.09-20.3Q123.89-19.8 122.54-18.6 121.19-17.4 119.84-15.83 118.49-14.25 117.29-12.4 116.09-10.55 115.14-8.7 114.19-6.85 113.64-5.15 113.09-3.45 113.09-2.15L113.09-2.15Q113.09 0.35 115.34 0.7ZM137.09 1.75L137.09 1.75Q134.24 1.45 132.54-0.75 130.84-2.95 130.84-6.35L130.84-6.35Q130.84-8.35 131.44-10.5 132.04-12.65 133.14-14.68 134.24-16.7 135.74-18.5 137.24-20.3 138.99-21.6L138.99-21.6Q141.74-23.65 144.14-23.65L144.14-23.65Q145.74-22.8 147.29-20.1L147.29-20.1Q147.54-20.1 147.74-20.13 147.94-20.15 148.19-20.15L148.19-20.15Q150.84-20.15 150.84-15.45L150.84-15.45Q150.84-12.3 149.81-9.47 148.79-6.65 146.96-4.35 145.14-2.05 142.61-0.48 140.09 1.1 137.09 1.75ZM139.64-14L139.64-14Q138.79-12.85 138.04-11.5 137.29-10.15 136.74-8.78 136.19-7.4 135.89-6.13 135.59-4.85 135.59-3.85L135.59-3.85Q135.59-2.65 135.99-1.55 136.39-0.45 136.89-0.3L136.89-0.3Q139.14-0.8 141.01-2.18 142.89-3.55 144.26-5.6 145.64-7.65 146.41-10.25 147.19-12.85 147.19-15.8L147.19-15.8Q147.19-17.1 147.04-17.85 146.89-18.6 146.54-19.15L146.54-19.15Q144.34-18.5 142.61-17.05 140.89-15.6 139.64-14ZM153.19-3.2L153.19-3.2Q153.19-5.4 154.24-9.38 155.29-13.35 157.19-18.65L157.19-18.65Q160.29-27.1 163.01-32.73 165.74-38.35 168.34-41.5L168.34-41.5Q168.94-41.4 169.81-41 170.69-40.6 171.54-40.13 172.39-39.65 173.06-39.15 173.74-38.65 173.94-38.35L173.94-38.35Q170.04-33.75 167.09-28.45 164.14-23.15 161.69-16.3L161.69-16.3Q159.59-10.4 158.49-5.68 157.39-0.95 157.39 2.2L157.39 2.2Q157.39 3.05 157.39 3.25 157.39 3.45 157.44 3.65L157.44 3.65Q156.74 3.55 156.24 3.3 155.74 3.05 155.59 2.7L155.59 2.7Q155.49 2.45 155.04 1.98 154.59 1.5 154.24 1.25L154.24 1.25Q153.79 0.95 153.49-0.33 153.19-1.6 153.19-3.2Z" opacity="1" transform="matrix(1,0,0,1,0,0)" fill="#000000" class="undefined-text-0" data-fill-palette-color="primary" id="text-0"></path></svg></g></svg></g></svg></g></svg></g><g transform="matrix(1,0,0,1,420.94728424074054,0)"><svg viewBox="0 0 110.64715883260801 148.8525170737534" height="148.8525170737534" width="110.64715883260801"><g><svg xmlns="http://www.w3.org/2000/svg" xmlns:xlink="http://www.w3.org/1999/xlink" version="1.1" x="8" y="0" viewBox="0 0.6441024164798659 63.175 99.35594350767317" enable-background="new 0 0 63.176 100" xml:space="preserve" width="94.64715883260801" height="148.8525170737534" class="icon-icon-0" data-fill-palette-color="accent" id="icon-0"><g fill="#f80909" data-fill-palette-color="accent"><circle cx="35.097" cy="8.635" r="8.6" fill="#f80909" data-fill-palette-color="accent"></circle><g fill="#f80909" data-fill-palette-color="accent"><path d="M55.788 83.153l7.387-0.802-3.833-14.719-4.368 0.479c-0.891-4.368-3.577-7.554-6.496-7.644l-2.63-8.936v2.674c0 2.329-0.735 4.535-2.084 6.373-1.549 0.412-3.02 1.66-4.123 3.454l0.056 2.373c0.769-1.972 1.939-3.51 3.242-4.29l0.011 0.067c0.178 0.579 0.535 1.059 0.992 1.393-0.579 1.081-0.981 2.384-1.17 3.822l1.092 0.167c0.156-1.348 0.546-2.552 1.07-3.521 0.501 0.123 1.036 0.123 1.571-0.033 0.501-0.145 0.925-0.412 1.259-0.747 1.036 1.46 1.604 3.71 1.482 6.228l-9.504-1.415 0.078 3.22c0 0 0.011 0.423 0.011 0.791l6.173 12.134 8.669 1.293 0.011-15.209-4.334-0.646c0.167-2.975-0.591-5.66-1.95-7.354 0.1-0.234 0.167-0.479 0.189-0.735 2.719 0.089 4.591 3.387 5.27 6.663l-2.384 0.256c0 0.067 0.011 0.145 0.011 0.212l3.365 0.501 0.947 0.145v0.958L55.788 83.153z" fill="#f80909" data-fill-palette-color="accent"></path><path d="M15.76 64.877c-0.109 0.177-0.217 0.355-0.32 0.541l0.983 0.497c0.914-1.672 2.111-2.92 3.37-3.514C18.526 62.494 17.041 63.422 15.76 64.877z" fill="#f80909" data-fill-palette-color="accent"></path><path d="M25.512 63.644c0.4 1.52 0.414 3.305 0.012 5.189-0.012 0.481-0.05 0.974-0.117 1.476l-0.255-0.06c-0.007 0.023-0.013 0.046-0.02 0.069l3.039 1.536 0.858 0.434L28.725 73.2l-4.114 12.373 4.885 1.148 1.271-15.153-4.273-1.004C26.864 67.906 26.475 65.427 25.512 63.644z" fill="#f80909" data-fill-palette-color="accent"></path><polygon points="4.548,80.86 10.448,82.246 5.076,79.53   " fill="#f80909" data-fill-palette-color="accent"></polygon><path d="M24.356 86.658l-0.098-0.023-0.331 0.995-0.407 1.225-0.174-0.088-0.253 7.561c-0.065 1.962 1.473 3.606 3.434 3.67 1.96 0.066 3.604-1.473 3.669-3.433l0.283-8.469-1.238-0.291L24.356 86.658z" fill="#f80909" data-fill-palette-color="accent"></path><path d="M30.774 84.769h5.805l-2.228-15.042h-4.39c-0.334-3.61-1.939-6.585-4.089-7.777l1.17-3.989c0.49 1.125 1.214 2.173 2.273 2.864l-0.836 1.928c1.215 1.493 2.095 3.532 2.462 5.861h4.368l0.045 0.301 4.301-7.432c0.512-0.312 1.003-0.713 1.426-1.137 1.571-1.582 2.54-3.744 2.54-6.139V27.354c0-1.203-0.245-2.351-0.691-3.387l-0.011 0.045c-1.337-3.153-4.401-5.37-7.978-5.37-4.802 0-8.691 3.978-8.691 8.88 0 0 0.022 5.994 0.045 12.468l-5.928 20.189c-2.574-0.167-5.616 1.816-7.677 5.103L8.78 63.298 0 75.71l22.875 11.565 4.791-14.429-3.911-1.983c0.992-2.529 1.192-5.058 0.646-7.031 0.401-0.201 0.758-0.49 1.014-0.858 1.916 0.635 3.231 4.735 3.432 6.752h-1.036l3.209 0.758 0.936 0.223-0.078 0.958L30.774 84.769zM22.755 70.365l-9.067-4.584c1.807-2.848 4.354-4.599 6.471-4.508-0.007 0.683 0.243 1.343 0.698 1.858l-0.589 0.278c-0.209 0.099-0.415 0.237-0.62 0.381-0.612 0.836-1.104 1.867-1.47 3.013l0.982 0.497c0.474-1.601 1.244-2.892 2.178-3.741 0.27 0.196 0.574 0.357 0.915 0.457 0.366 0.108 0.735 0.138 1.091 0.109C23.821 65.823 23.646 68.074 22.755 70.365z" fill="#f80909" data-fill-palette-color="accent"></path><polygon points="10.955,84.771 16.323,84.771 11.136,83.552   " fill="#f80909" data-fill-palette-color="accent"></polygon><path d="M37.621 72.648c0-0.015-0.031-1.292-0.031-1.292l-1.487 2.576 1.582 10.676 0.025 0.17-0.013 0.335 0.062-0.007 0.115 0.779h-1.291-0.195l5.185 10.197c0.89 1.749 3.03 2.446 4.779 1.556 1.749-0.887 2.446-3.029 1.556-4.778L37.621 72.648z" fill="#f80909" data-fill-palette-color="accent"></path></g></g></svg></g></svg></g></svg></g><defs></defs></svg><rect width="395.52" height="110.75011847873583" fill="none" stroke="none" visibility="hidden"></rect></g></svg></g></svg>