<svg xmlns="http://www.w3.org/2000/svg" version="1.1" xmlns:xlink="http://www.w3.org/1999/xlink" xmlns:svgjs="http://svgjs.dev/svgjs" width="1000" height="244" viewBox="0 0 1000 244"><g transform="matrix(1,0,0,1,-0.6060606060606233,1.1499433436142255)"><svg viewBox="0 0 396 97" data-background-color="#ffffff" preserveAspectRatio="xMidYMid meet" height="244" width="1000" xmlns="http://www.w3.org/2000/svg" xmlns:xlink="http://www.w3.org/1999/xlink"><g id="tight-bounds" transform="matrix(1,0,0,1,0.2400000000000091,0.16800879850717365)"><svg viewBox="0 0 395.52 96.66398240298565" height="96.66398240298565" width="395.52"><g><svg viewBox="0 0 395.52 96.66398240298565" height="96.66398240298565" width="395.52"><g><svg viewBox="0 0 512.5721731787921 125.2712063319551" height="96.66398240298565" width="395.52"><g transform="matrix(1,0,0,1,0,17.313169616066155)"><svg viewBox="0 0 395.52 90.64486709982279" height="90.64486709982279" width="395.52"><g><svg viewBox="0 0 395.52 90.64486709982279" height="90.64486709982279" width="395.52"><g><svg viewBox="0 0 395.52 90.64486709982279" height="90.64486709982279" width="395.52"><g transform="matrix(1,0,0,1,0,0)"><svg width="395.52" viewBox="1 -37.9 169.28 38.8" height="90.64486709982279" data-palette-color="#ffffff"><path d="M5.7-21.55L5.7-21.55 5.65-30.05Q5.65-31.4 4.8-32.73 3.95-34.05 2-34.05L2-34.05Q1-34.05 1-34.7L1-34.7Q1-35.5 2.15-35.5L2.15-35.5 4-35.55 7-35.4 15.25-35.55Q19.95-35.55 23.35-33.18 26.75-30.8 26.75-26.35L26.75-26.35Q26.75-23.9 25.85-21.98 24.95-20.05 23.68-18.95 22.4-17.85 20.8-17.1L20.8-17.1Q18.25-15.95 16.25-15.95 14.25-15.95 12.6-16.32 10.95-16.7 10.95-17.1L10.95-17.1Q10.95-17.85 11.6-17.85L11.6-17.85Q11.85-17.85 12.63-17.65 13.4-17.45 14.35-17.45 15.3-17.45 16.6-17.78 17.9-18.1 19.3-18.82 20.7-19.55 21.6-21.03 22.5-22.5 22.5-24.45L22.5-24.45Q22.5-27.8 19.8-30.68 17.1-33.55 12.35-33.55L12.35-33.55Q10.8-33.55 10.25-32.63 9.7-31.7 9.7-28.45L9.7-28.45 9.6-7.8Q9.6-2 13-1.6L13-1.6Q13.85-1.5 14.4-1.5L14.4-1.5Q15.8-1.6 15.8-0.5L15.8-0.5Q15.8 0.35 14.65 0.35L14.65 0.35 7.5 0.1 2.85 0.3Q1.3 0.3 1.3-0.25L1.3-0.25Q1.3-1.1 1.85-1.3L1.85-1.3Q2.1-1.4 2.2-1.45 2.3-1.5 2.68-1.58 3.05-1.65 3.18-1.7 3.3-1.75 3.5-1.78 3.7-1.8 3.78-1.83 3.85-1.85 4.03-1.98 4.2-2.1 4.3-2.33 4.4-2.55 4.58-2.93 4.75-3.3 5.03-4.08 5.3-4.85 5.5-11.4 5.7-17.95 5.7-21.55ZM35.8 0.75L35.8 0.75Q29.9 0.75 29.9-4.25L29.9-4.25Q29.9-7.85 32.9-9.2L32.9-9.2Q35.4-10.25 40.55-11.1L40.55-11.1Q40.7-11.15 40.95-11.18 41.2-11.2 41.47-11.25 41.75-11.3 41.9-11.35L41.9-11.35Q42.25-11.5 42.25-12.05L42.25-12.05 42.35-14.65Q42.35-17.5 40.7-18.78 39.05-20.05 37.5-20.05L37.5-20.05Q33.9-20.05 33.9-17.05L33.9-17.05 34.1-15.25Q34.1-14.25 33.2-14.25L33.2-14.25Q32.5-14.25 31.65-14.5L31.65-14.5Q30.1-15 30.1-16.2L30.1-16.2Q30.1-18.15 32.72-19.93 35.35-21.7 38-21.7 40.65-21.7 42.15-21.2 43.65-20.7 44.37-20.08 45.1-19.45 45.5-18.4L45.5-18.4Q46-17.15 46-14.48 46-11.8 45.87-9.73 45.75-7.65 45.75-5.95 45.75-4.25 46.15-3.18 46.55-2.1 47.1-1.8 47.65-1.5 48.2-1.45L48.2-1.45Q49.55-1.35 49.55-0.65L49.55-0.65Q49.55 0.4 46.4 0.4L46.4 0.4Q45.1 0.4 44.17-0.3 43.25-1 42.85-1.68 42.45-2.35 42.4-2.35 42.35-2.35 42-2.02 41.65-1.7 41.02-1.25 40.4-0.8 39.6-0.35L39.6-0.35Q37.75 0.75 35.8 0.75ZM41.9-10.4L41.9-10.4 41.4-10.3Q40.25-10.1 39.95-10.05 39.65-10 38.55-9.75 37.45-9.5 37.02-9.3 36.6-9.1 35.82-8.68 35.05-8.25 34.7-7.8L34.7-7.8Q33.8-6.4 33.8-4.85 33.8-3.3 34.8-2.27 35.8-1.25 37.37-1.25 38.95-1.25 39.87-1.65 40.8-2.05 41.25-2.55 41.7-3.05 41.95-3.9L41.95-3.9Q42.25-4.85 42.25-6.35L42.25-6.35 42.25-9.95Q42.25-10.4 41.9-10.4ZM62.95 0L62.95 0 59.3-0.2Q58-0.2 55.84-0.1L55.84-0.1 53.7 0Q52.95 0 52.95-0.45 52.95-0.9 53.2-1 53.45-1.1 53.82-1.15 54.2-1.2 54.55-1.45L54.55-1.45Q55.5-2.05 55.59-5.08 55.7-8.1 55.7-9.05L55.7-9.05 55.7-16.25Q55.7-17.85 55.12-18.4 54.55-18.95 53.55-18.95L53.55-18.95 53.05-18.95Q52.09-18.95 52.09-19.5L52.09-19.5Q52.09-20 53.17-20.15 54.25-20.3 54.87-20.48 55.5-20.65 56.52-21.08 57.55-21.5 58.17-21.8 58.8-22.1 59-22.1L59-22.1 59.09-22.1Q59.55-22.1 59.55-21.5L59.55-21.5 59.45-19.35Q59.45-18.05 59.65-18.05 59.84-18.05 60.05-18.3L60.05-18.3Q60.8-19.35 62.05-20.1L62.05-20.1Q64.3-21.5 66.34-21.5 68.4-21.5 70-20.88 71.59-20.25 72.5-19.33 73.4-18.4 74-17.2L74-17.2Q75-15.2 75-13.1L75-13.1 75-12.6 75.05-9.95 75.05-4.85Q75.05-2.95 75.57-2.23 76.09-1.5 78.09-1.2L78.09-1.2Q79.09-1.05 79.09-0.45L79.09-0.45Q79.09 0.05 78.09 0.05L78.09 0.05 74-0.2 70.15 0Q69.15 0 69.15-0.65L69.15-0.65Q69.15-1.1 69.75-1.25L69.75-1.25 70.4-1.4Q71.5-1.75 71.5-4.75L71.5-4.75 71.5-11.5Q71.5-15.35 69.59-17.32 67.7-19.3 65.3-19.3 62.9-19.3 61.3-18.15 59.7-17 59.34-16 59-15 59-8.35L59-8.35 59-6.45Q59-3.95 59.52-2.75 60.05-1.55 61.84-1.4L61.84-1.4Q62.34-1.4 63.12-1.23 63.9-1.05 63.9-0.65L63.9-0.65Q63.9 0 62.95 0ZM88.39 0.75L88.39 0.75Q82.49 0.75 82.49-4.25L82.49-4.25Q82.49-7.85 85.49-9.2L85.49-9.2Q87.99-10.25 93.14-11.1L93.14-11.1Q93.29-11.15 93.54-11.18 93.79-11.2 94.07-11.25 94.34-11.3 94.49-11.35L94.49-11.35Q94.84-11.5 94.84-12.05L94.84-12.05 94.94-14.65Q94.94-17.5 93.29-18.78 91.64-20.05 90.09-20.05L90.09-20.05Q86.49-20.05 86.49-17.05L86.49-17.05 86.69-15.25Q86.69-14.25 85.79-14.25L85.79-14.25Q85.09-14.25 84.24-14.5L84.24-14.5Q82.69-15 82.69-16.2L82.69-16.2Q82.69-18.15 85.32-19.93 87.94-21.7 90.59-21.7 93.24-21.7 94.74-21.2 96.24-20.7 96.97-20.08 97.69-19.45 98.09-18.4L98.09-18.4Q98.59-17.15 98.59-14.48 98.59-11.8 98.47-9.73 98.34-7.65 98.34-5.95 98.34-4.25 98.74-3.18 99.14-2.1 99.69-1.8 100.24-1.5 100.79-1.45L100.79-1.45Q102.14-1.35 102.14-0.65L102.14-0.65Q102.14 0.4 98.99 0.4L98.99 0.4Q97.69 0.4 96.77-0.3 95.84-1 95.44-1.68 95.04-2.35 94.99-2.35 94.94-2.35 94.59-2.02 94.24-1.7 93.62-1.25 92.99-0.8 92.19-0.35L92.19-0.35Q90.34 0.75 88.39 0.75ZM94.49-10.4L94.49-10.4 93.99-10.3Q92.84-10.1 92.54-10.05 92.24-10 91.14-9.75 90.04-9.5 89.62-9.3 89.19-9.1 88.42-8.68 87.64-8.25 87.29-7.8L87.29-7.8Q86.39-6.4 86.39-4.85 86.39-3.3 87.39-2.27 88.39-1.25 89.97-1.25 91.54-1.25 92.47-1.65 93.39-2.05 93.84-2.55 94.29-3.05 94.54-3.9L94.54-3.9Q94.84-4.85 94.84-6.35L94.84-6.35 94.84-9.95Q94.84-10.4 94.49-10.4ZM122.14 0.15L122.14 0.15 121.99-1.7Q121.99-2.55 121.54-2.55L121.54-2.55Q121.39-2.55 120.81-2.05 120.24-1.55 119.49-0.93 118.74-0.3 117.31 0.2 115.89 0.7 114.24 0.7L114.24 0.7Q109.59 0.7 106.99-2.38 104.39-5.45 104.39-10.03 104.39-14.6 107.61-18.25 110.84-21.9 116.54-21.9L116.54-21.9Q117.84-21.9 119.97-21.18 122.09-20.45 122.29-20.45 122.49-20.45 122.49-22.25L122.49-22.25 122.59-28.7Q122.59-31.4 122.31-32.5 122.04-33.6 121.47-33.95 120.89-34.3 119.94-34.3L119.94-34.3 119.39-34.3Q118.64-34.3 118.49-34.35 118.34-34.4 118.34-34.7L118.34-34.7 118.34-34.75Q118.34-35.1 118.84-35.27 119.34-35.45 120.86-35.93 122.39-36.4 123.27-36.8 124.14-37.2 124.59-37.4L124.59-37.4Q125.54-37.9 125.94-37.9L125.94-37.9Q126.54-37.9 126.54-36.9L126.54-36.9Q126.54-36.75 126.22-32.65 125.89-28.55 125.89-26.05L125.89-26.05 125.79-7.8Q125.79-4.4 126.11-3.25 126.44-2.1 127.54-1.75L127.54-1.75Q127.69-1.7 128.39-1.58 129.09-1.45 129.39-1.28 129.69-1.1 129.69-0.7L129.69-0.7Q129.69-0.1 125.84 0.2L125.84 0.2Q125.04 0.25 123.99 0.48 122.94 0.7 122.69 0.7L122.69 0.7Q122.14 0.7 122.14 0.15ZM114.94-20.45Q111.69-20.45 109.84-18.07 107.99-15.7 107.99-12 107.99-8.3 110.31-5.1 112.64-1.9 116.29-1.9L116.29-1.9Q118.54-1.9 120.39-3.05 122.24-4.2 122.24-5.85L122.24-5.85 122.29-14.4Q122.29-17.45 120.89-18.25L120.89-18.25Q117.19-20.45 114.94-20.45L114.94-20.45ZM143.31 0.9Q138.19 0.9 135.16-2.38 132.14-5.65 132.14-10.2 132.14-14.75 135.26-18.15 138.39-21.55 143.51-21.55 148.64-21.55 152.11-18.6 155.59-15.65 155.59-10.4 155.59-5.15 152.01-2.13 148.44 0.9 143.31 0.9ZM142.74-20.2Q140.14-20.2 138.11-18.15 136.09-16.1 136.09-11.4 136.09-6.7 138.84-3.65 141.59-0.6 144.76-0.6 147.94-0.6 149.89-2.78 151.84-4.95 151.84-9.15 151.84-13.35 149.44-16.78 147.04-20.2 142.74-20.2L142.74-20.2ZM161.84-5.9L161.84-9.6 162.03-30.85Q162.03-32 161.66-32.93 161.28-33.85 160.84-34.05 160.38-34.25 158.84-34.25L158.84-34.25Q158.28-34.25 158.28-34.6 158.28-34.95 158.36-35.1 158.44-35.25 158.69-35.38 158.94-35.5 159.28-35.6L159.28-35.6Q160.73-35.9 162.28-36.65L162.28-36.65Q164.73-37.8 165.48-37.8L165.48-37.8Q166.09-37.8 166.09-36.85L166.09-36.85Q166.09-36.65 165.98-35.7L165.98-35.7Q165.69-32.75 165.69-29.25L165.69-29.25 165.69-26.45 165.59-19.8 165.59-4.9Q165.59-3.85 165.76-3.18 165.94-2.5 166.91-1.88 167.88-1.25 169.63-1.25L169.63-1.25Q169.88-1.25 170.09-1 170.28-0.75 170.28-0.5L170.28-0.5Q170.28 0.2 168.73 0.2L168.73 0.2 163.69-0.15Q162.38-0.15 161.21 0.05 160.03 0.25 159.66 0.25 159.28 0.25 159.06 0.08 158.84-0.1 158.84-0.38 158.84-0.65 159.06-0.83 159.28-1 159.78-1.1L159.78-1.1Q161.28-1.5 161.59-2.33 161.88-3.15 161.88-4.6L161.88-4.6 161.84-5.9Z" opacity="1" transform="matrix(1,0,0,1,0,0)" fill="#ffffff" class="undefined-text-0" data-fill-palette-color="primary" id="text-0"></path></svg></g></svg></g></svg></g></svg></g><g transform="matrix(1,0,0,1,416.9190776454577,0)"><svg viewBox="0 0 95.65309553333437 125.2712063319551" height="125.2712063319551" width="95.65309553333437"><g><svg xmlns="http://www.w3.org/2000/svg" xmlns:xlink="http://www.w3.org/1999/xlink" version="1.1" x="8" y="0" viewBox="0 0.6441024164798659 63.175 99.35594350767317" enable-background="new 0 0 63.176 100" xml:space="preserve" width="79.65309553333437" height="125.2712063319551" class="icon-icon-0" data-fill-palette-color="accent" id="icon-0"><g fill="#f80909" data-fill-palette-color="accent"><circle cx="35.097" cy="8.635" r="8.6" fill="#f80909" data-fill-palette-color="accent"></circle><g fill="#f80909" data-fill-palette-color="accent"><path d="M55.788 83.153l7.387-0.802-3.833-14.719-4.368 0.479c-0.891-4.368-3.577-7.554-6.496-7.644l-2.63-8.936v2.674c0 2.329-0.735 4.535-2.084 6.373-1.549 0.412-3.02 1.66-4.123 3.454l0.056 2.373c0.769-1.972 1.939-3.51 3.242-4.29l0.011 0.067c0.178 0.579 0.535 1.059 0.992 1.393-0.579 1.081-0.981 2.384-1.17 3.822l1.092 0.167c0.156-1.348 0.546-2.552 1.07-3.521 0.501 0.123 1.036 0.123 1.571-0.033 0.501-0.145 0.925-0.412 1.259-0.747 1.036 1.46 1.604 3.71 1.482 6.228l-9.504-1.415 0.078 3.22c0 0 0.011 0.423 0.011 0.791l6.173 12.134 8.669 1.293 0.011-15.209-4.334-0.646c0.167-2.975-0.591-5.66-1.95-7.354 0.1-0.234 0.167-0.479 0.189-0.735 2.719 0.089 4.591 3.387 5.27 6.663l-2.384 0.256c0 0.067 0.011 0.145 0.011 0.212l3.365 0.501 0.947 0.145v0.958L55.788 83.153z" fill="#f80909" data-fill-palette-color="accent"></path><path d="M15.76 64.877c-0.109 0.177-0.217 0.355-0.32 0.541l0.983 0.497c0.914-1.672 2.111-2.92 3.37-3.514C18.526 62.494 17.041 63.422 15.76 64.877z" fill="#f80909" data-fill-palette-color="accent"></path><path d="M25.512 63.644c0.4 1.52 0.414 3.305 0.012 5.189-0.012 0.481-0.05 0.974-0.117 1.476l-0.255-0.06c-0.007 0.023-0.013 0.046-0.02 0.069l3.039 1.536 0.858 0.434L28.725 73.2l-4.114 12.373 4.885 1.148 1.271-15.153-4.273-1.004C26.864 67.906 26.475 65.427 25.512 63.644z" fill="#f80909" data-fill-palette-color="accent"></path><polygon points="4.548,80.86 10.448,82.246 5.076,79.53   " fill="#f80909" data-fill-palette-color="accent"></polygon><path d="M24.356 86.658l-0.098-0.023-0.331 0.995-0.407 1.225-0.174-0.088-0.253 7.561c-0.065 1.962 1.473 3.606 3.434 3.67 1.96 0.066 3.604-1.473 3.669-3.433l0.283-8.469-1.238-0.291L24.356 86.658z" fill="#f80909" data-fill-palette-color="accent"></path><path d="M30.774 84.769h5.805l-2.228-15.042h-4.39c-0.334-3.61-1.939-6.585-4.089-7.777l1.17-3.989c0.49 1.125 1.214 2.173 2.273 2.864l-0.836 1.928c1.215 1.493 2.095 3.532 2.462 5.861h4.368l0.045 0.301 4.301-7.432c0.512-0.312 1.003-0.713 1.426-1.137 1.571-1.582 2.54-3.744 2.54-6.139V27.354c0-1.203-0.245-2.351-0.691-3.387l-0.011 0.045c-1.337-3.153-4.401-5.37-7.978-5.37-4.802 0-8.691 3.978-8.691 8.88 0 0 0.022 5.994 0.045 12.468l-5.928 20.189c-2.574-0.167-5.616 1.816-7.677 5.103L8.78 63.298 0 75.71l22.875 11.565 4.791-14.429-3.911-1.983c0.992-2.529 1.192-5.058 0.646-7.031 0.401-0.201 0.758-0.49 1.014-0.858 1.916 0.635 3.231 4.735 3.432 6.752h-1.036l3.209 0.758 0.936 0.223-0.078 0.958L30.774 84.769zM22.755 70.365l-9.067-4.584c1.807-2.848 4.354-4.599 6.471-4.508-0.007 0.683 0.243 1.343 0.698 1.858l-0.589 0.278c-0.209 0.099-0.415 0.237-0.62 0.381-0.612 0.836-1.104 1.867-1.47 3.013l0.982 0.497c0.474-1.601 1.244-2.892 2.178-3.741 0.27 0.196 0.574 0.357 0.915 0.457 0.366 0.108 0.735 0.138 1.091 0.109C23.821 65.823 23.646 68.074 22.755 70.365z" fill="#f80909" data-fill-palette-color="accent"></path><polygon points="10.955,84.771 16.323,84.771 11.136,83.552   " fill="#f80909" data-fill-palette-color="accent"></polygon><path d="M37.621 72.648c0-0.015-0.031-1.292-0.031-1.292l-1.487 2.576 1.582 10.676 0.025 0.17-0.013 0.335 0.062-0.007 0.115 0.779h-1.291-0.195l5.185 10.197c0.89 1.749 3.03 2.446 4.779 1.556 1.749-0.887 2.446-3.029 1.556-4.778L37.621 72.648z" fill="#f80909" data-fill-palette-color="accent"></path></g></g></svg></g></svg></g></svg></g></svg></g><defs></defs></svg><rect width="395.52" height="96.66398240298565" fill="none" stroke="none" visibility="hidden"></rect></g></svg></g></svg>